M48
; DRILL file {KiCad 8.0.1-rc1} date 2024-12-19T23:23:55-0800
; FORMAT={-:-/ absolute / inch / decimal}
; #@! TF.CreationDate,2024-12-19T23:23:55-08:00
; #@! TF.GenerationSoftware,Kicad,Pcbnew,8.0.1-rc1
; #@! TF.FileFunction,Plated,1,2,PTH
FMAT,2
INCH
; #@! TA.AperFunction,Plated,PTH,ViaDrill
T1C0.0140
; #@! TA.AperFunction,Plated,PTH,ComponentDrill
T2C0.0200
; #@! TA.AperFunction,Plated,PTH,ComponentDrill
T3C0.0250
; #@! TA.AperFunction,Plated,PTH,ComponentDrill
T4C0.0315
; #@! TA.AperFunction,Plated,PTH,ComponentDrill
T5C0.0350
; #@! TA.AperFunction,Plated,PTH,ComponentDrill
T6C0.0400
; #@! TA.AperFunction,Plated,PTH,ComponentDrill
T7C0.0450
; #@! TA.AperFunction,Plated,PTH,ComponentDrill
T8C0.0800
; #@! TA.AperFunction,Plated,PTH,ComponentDrill
T9C0.1181
; #@! TA.AperFunction,Plated,PTH,ViaDrill
T10C0.1200
; #@! TA.AperFunction,Plated,PTH,ComponentDrill
T11C0.1575
%
G90
G05
T1
X5.055Y-3.855
X5.11Y-3.76
X5.1562Y-3.6808
X5.2062Y-2.25
X5.2188Y-2.3312
X5.2313Y-2.1437
X5.2375Y-1.55
X5.2422Y-3.3937
X5.25Y-1.6375
X5.2625Y-1.975
X5.275Y-2.4
X5.2875Y-1.8625
X5.3125Y-2.3375
X5.3187Y-2.4438
X5.3219Y-1.9781
X5.325Y-2.2375
X5.325Y-2.8
X5.325Y-3.3813
X5.3281Y-1.4812
X5.3375Y-2.55
X5.3469Y-1.8062
X5.35Y-1.6812
X5.3563Y-2.0688
X5.375Y-1.95
X5.375Y-2.2437
X5.375Y-2.4312
X5.375Y-2.9
X5.375Y-3.35
X5.3812Y-1.5125
X5.3937Y-1.8562
X5.4Y-2.3
X5.4Y-2.3781
X5.4125Y-3.3031
X5.4156Y-2.6437
X5.425Y-2.7
X5.425Y-3.0
X5.4312Y-2.1375
X5.4312Y-2.5594
X5.4625Y-2.4688
X5.4688Y-2.1
X5.475Y-2.6156
X5.4906Y-3.2437
X5.4937Y-2.3875
X5.5125Y-1.9937
X5.5187Y-2.2188
X5.5187Y-3.1594
X5.525Y-1.825
X5.525Y-2.467
X5.525Y-3.0688
X5.5562Y-1.75
X5.575Y-2.517
X5.575Y-3.0
X5.5812Y-3.6906
X5.5938Y-1.7188
X5.6Y-2.1375
X5.6063Y-2.2375
X5.608Y-3.2125
X5.6312Y-2.4125
X5.6312Y-3.7375
X5.6365Y-3.6573
X5.6437Y-1.7688
X5.649Y-3.0625
X5.6562Y-2.2375
X5.6574Y-3.6959
X5.6812Y-2.0562
X5.6822Y-3.4187
X5.6844Y-3.3705
X5.6875Y-2.5938
X5.6937Y-3.7325
X5.6946Y-3.3094
X5.7Y-2.65
X5.7062Y-2.7375
X5.7125Y-3.1627
X5.7125Y-1.9812
X5.7125Y-2.425
X5.7164Y-3.2105
X5.7188Y-2.4812
X5.7233Y-2.55
X5.7283Y-3.3686
X5.7469Y-2.1844
X5.7517Y-2.9688
X5.7517Y-3.0171
X5.7687Y-1.8
X5.7705Y-3.102
X5.775Y-2.8625
X5.775Y-3.4062
X5.7875Y-1.4812
X5.7879Y-3.2586
X5.7938Y-1.6687
X5.8Y-2.75
X5.8937Y-3.475
X5.9437Y-3.5375
X5.945Y-3.478
X5.9562Y-4.4562
X5.9608Y-2.2608
X5.9608Y-2.95
X5.967Y-3.2563
X5.9688Y-2.7842
X5.975Y-1.4625
X5.975Y-2.0187
X5.975Y-5.1
X5.9813Y-3.1687
X5.9813Y-3.0543
X5.985Y-1.41
X5.9958Y-3.0083
X6.007Y-1.7937
X6.0072Y-2.3336
X6.0072Y-2.7039
X6.0227Y-2.1352
X6.0252Y-2.4894
X6.0358Y-2.908
X6.0375Y-2.9625
X6.0438Y-1.575
X6.05Y-2.6187
X6.0525Y-2.2233
X6.0562Y-1.8625
X6.0661Y-3.1705
X6.0687Y-2.75
X6.0769Y-2.1548
X6.0812Y-3.125
X6.1023Y-2.8818
X6.1118Y-2.1896
X6.1133Y-3.5688
X6.115Y-3.39
X6.1187Y-2.2556
X6.1207Y-3.6187
X6.125Y-1.555
X6.1295Y-3.083
X6.1312Y-1.6187
X6.15Y-2.8767
X6.1562Y-4.2
X6.1625Y-3.0375
X6.1656Y-4.7938
X6.175Y-4.5187
X6.1812Y-4.675
X6.1875Y-2.7437
X6.1898Y-2.125
X6.1935Y-2.3108
X6.1937Y-4.9937
X6.2088Y-2.0026
X6.2125Y-3.0375
X6.2125Y-3.3875
X6.225Y-5.075
X6.2313Y-4.9375
X6.2313Y-5.1187
X6.2345Y-4.3187
X6.2375Y-3.175
X6.2375Y-4.7687
X6.239Y-3.271
X6.2469Y-3.107
X6.2581Y-3.3168
X6.2594Y-3.8656
X6.2595Y-3.0472
X6.275Y-3.2125
X6.275Y-4.5187
X6.2757Y-2.3455
X6.2869Y-3.2785
X6.2882Y-2.0632
X6.2928Y-3.1678
X6.295Y-2.505
X6.3062Y-2.7437
X6.314Y-5.004
X6.3219Y-4.9469
X6.3249Y-3.9097
X6.325Y-4.6594
X6.3275Y-3.0616
X6.3312Y-4.2062
X6.3406Y-4.7875
X6.3431Y-1.6312
X6.3438Y-1.8625
X6.35Y-2.5
X6.3514Y-3.308
X6.3594Y-5.1344
X6.3625Y-3.179
X6.375Y-3.6375
X6.3875Y-4.8687
X6.4Y-3.975
X6.4097Y-5.1278
X6.4188Y-3.8156
X6.4437Y-1.5
X6.4437Y-3.9937
X6.4469Y-3.8781
X6.455Y-2.7127
X6.4556Y-2.6546
X6.4625Y-5.125
X6.4688Y-5.025
X6.4737Y-3.4501
X6.475Y-3.5
X6.4763Y-3.6251
X6.5061Y-2.8613
X6.5062Y-3.3312
X6.5125Y-3.075
X6.5125Y-5.1125
X6.5125Y-5.3
X6.5125Y-5.4
X6.52Y-1.7
X6.528Y-5.207
X6.55Y-2.905
X6.55Y-2.955
X6.55Y-3.005
X6.5515Y-4.7685
X6.5562Y-3.7625
X6.5562Y-4.1187
X6.575Y-3.05
X6.5812Y-4.7162
X6.5812Y-5.0531
X6.5875Y-2.5375
X6.5875Y-4.9375
X6.5938Y-1.842
X6.5938Y-3.9562
X6.6116Y-4.7545
X6.6125Y-3.4625
X6.6125Y-4.3
X6.6187Y-2.625
X6.6187Y-3.3937
X6.626Y-5.072
X6.6312Y-2.0688
X6.6437Y-2.3062
X6.653Y-2.408
X6.6625Y-2.2188
X6.6688Y-4.0
X6.6812Y-2.4937
X6.6875Y-2.328
X6.6937Y-2.5437
X6.6937Y-4.8031
X6.7Y-2.6687
X6.7Y-4.5125
X6.7281Y-5.0112
X6.7313Y-3.7625
X6.7375Y-3.3875
X6.7437Y-2.1148
X6.7469Y-2.8937
X6.75Y-3.05
X6.7625Y-3.0
X6.7626Y-3.4876
X6.7753Y-2.9315
X6.7875Y-2.2625
X6.79Y-5.148
X6.8Y-2.804
X6.8052Y-2.8542
X6.8125Y-4.1875
X6.8125Y-4.6375
X6.8156Y-2.9625
X6.8156Y-4.0438
X6.8187Y-4.0938
X6.823Y-3.0989
X6.825Y-5.0125
X6.8282Y-2.1889
X6.8422Y-3.8541
X6.85Y-1.76
X6.85Y-3.5562
X6.8505Y-2.8147
X6.8524Y-2.3024
X6.86Y-5.188
X6.8625Y-3.4375
X6.875Y-3.246
X6.891Y-3.3375
X6.8924Y-2.424
X6.8937Y-2.27
X6.8937Y-2.5063
X6.907Y-1.771
X6.925Y-2.596
X6.925Y-3.2687
X6.9437Y-2.4187
X6.9437Y-4.1
X6.945Y-4.6
X6.95Y-3.4812
X6.95Y-3.7437
X6.9506Y-2.5174
X6.975Y-2.1875
X6.9875Y-3.0938
X6.992Y-1.752
X6.9937Y-2.4187
X6.9937Y-4.225
X6.995Y-5.115
X6.9955Y-4.0187
X6.9991Y-3.933
X7.0Y-4.3
X7.0Y-4.3812
X7.0Y-4.4562
X7.0Y-4.515
X7.0312Y-3.4937
X7.0335Y-3.2009
X7.05Y-1.768
X7.05Y-2.4937
X7.05Y-3.0812
X7.0509Y-3.1605
X7.0562Y-2.068
X7.0562Y-3.3937
X7.0619Y-3.0086
X7.088Y-4.022
X7.1312Y-3.7687
X7.1562Y-2.1313
X7.1562Y-4.3312
X7.1562Y-4.3875
X7.1562Y-4.525
X7.2062Y-2.4
X7.2125Y-1.925
X7.2223Y-2.784
X7.225Y-2.8937
X7.225Y-2.975
X7.225Y-3.375
X7.2375Y-3.0625
X7.2437Y-2.6875
X7.255Y-3.175
X7.275Y-2.5165
X7.2812Y-3.025
X7.3Y-1.95
X7.3Y-3.4812
X7.3187Y-3.1187
X7.3312Y-3.6938
X7.35Y-2.95
X7.3563Y-3.0312
X7.3687Y-3.15
X7.3687Y-3.3687
X7.4625Y-2.3562
X7.475Y-2.2437
X7.4931Y-2.5187
X7.5Y-1.975
X7.5248Y-2.6161
X7.5375Y-2.0125
X7.5438Y-2.8562
X7.55Y-2.3875
X7.55Y-3.125
X7.554Y-2.7994
X7.5562Y-2.7375
X7.579Y-2.3188
X7.579Y-2.9444
X7.5812Y-3.3813
X7.5875Y-2.0125
X7.5938Y-2.1938
X7.5961Y-2.9006
X7.6Y-1.8375
X7.6Y-2.5
X7.6125Y-2.2437
X7.6375Y-1.969
X7.6419Y-3.378
X7.6562Y-3.175
X7.6625Y-3.3062
X7.6637Y-2.9171
X7.685Y-1.9375
X7.6937Y-2.4
X7.705Y-1.875
X7.75Y-1.945
T2
X5.46Y-1.47
X5.5Y-1.6
X5.54Y-1.47
T3
X7.7125Y-1.4625
X7.7875Y-1.4625
T4
X7.2369Y-1.5698
X7.2369Y-2.1052
X7.3156Y-1.5698
X7.3156Y-2.1052
X7.3944Y-1.5698
X7.3944Y-2.1052
X7.4731Y-1.5698
X7.4731Y-2.1052
X7.5519Y-1.5698
X7.5519Y-2.1052
X7.6306Y-1.5698
X7.6306Y-2.1052
X7.7094Y-1.5698
X7.7094Y-2.1052
X7.7881Y-1.5698
X7.7881Y-2.1052
T5
X6.175Y-1.425
X6.275Y-1.425
T6
X5.0Y-1.5
X5.0Y-1.6
X5.0Y-1.9
X5.1063Y-3.525
X5.1063Y-3.625
X5.15Y-1.5
X5.15Y-1.6
X5.15Y-1.7
X5.15Y-1.8
X5.15Y-1.9
X5.15Y-2.0
X5.15Y-2.1
X5.15Y-2.2
X5.15Y-2.3
X5.15Y-2.4
X5.15Y-2.5
X5.15Y-2.6
X5.15Y-2.7
X5.15Y-2.8
X5.15Y-2.9
X5.15Y-3.0
X5.15Y-3.1
X5.15Y-3.2
X5.15Y-3.3
X5.15Y-3.4
X5.2062Y-3.525
X5.2062Y-3.625
X5.3062Y-3.525
X5.3062Y-3.625
X5.325Y-3.775
X5.375Y-1.4
X5.4062Y-3.525
X5.4062Y-3.625
X5.4813Y-3.8687
X5.4875Y-4.175
X5.625Y-1.4
X5.725Y-1.4
X5.85Y-1.5
X5.85Y-1.6
X5.85Y-1.7
X5.85Y-1.8
X5.85Y-1.9
X5.85Y-2.0
X5.85Y-2.1
X5.85Y-2.2
X5.85Y-2.3
X5.85Y-2.4
X5.85Y-2.5
X5.85Y-2.6
X5.85Y-2.7
X5.85Y-2.8
X5.85Y-2.9
X5.85Y-3.0
X5.85Y-3.1
X5.85Y-3.2
X5.85Y-3.3
X5.85Y-3.4
X6.075Y-1.425
X6.1Y-3.95
X6.1Y-4.05
X6.1Y-4.15
X6.1Y-4.25
X6.1Y-4.35
X6.1Y-4.45
X6.1Y-4.55
X6.1Y-4.65
X6.1Y-4.75
X6.1Y-4.85
X6.1Y-4.95
X6.1Y-5.05
X6.1063Y-2.4046
X6.1063Y-2.4921
X6.1063Y-2.5796
X6.1063Y-2.6671
X6.1187Y-1.9
X6.1187Y-2.0
X6.1875Y-3.7125
X6.1937Y-2.6671
X6.275Y-5.2625
X6.2812Y-2.6671
X6.2875Y-3.7125
X6.3563Y-2.3171
X6.375Y-1.425
X6.3875Y-3.7125
X6.4375Y-1.8
X6.4375Y-2.1
X6.4437Y-2.3171
X6.4875Y-3.7125
X6.5312Y-2.3171
X6.5312Y-2.4046
X6.5312Y-2.4921
X6.5312Y-2.5796
X6.5312Y-2.6671
X6.5375Y-1.8
X6.5375Y-2.1
X6.575Y-1.425
X6.675Y-1.425
X6.675Y-1.525
X6.775Y-1.425
X6.775Y-1.525
X6.875Y-1.425
X6.9Y-3.95
X6.9Y-4.05
X6.9Y-4.15
X6.9Y-4.25
X6.9Y-4.35
X6.9Y-4.45
X6.9Y-4.55
X6.9Y-4.65
X6.9Y-4.75
X6.9Y-4.85
X6.9Y-4.95
X6.9Y-5.05
X6.975Y-1.425
X7.05Y-2.75
X7.05Y-4.75
X7.05Y-4.85
X7.05Y-4.95
X7.05Y-5.05
X7.075Y-1.425
X7.125Y-4.8
X7.125Y-4.9
X7.125Y-5.0
X7.125Y-5.1
X7.15Y-2.25
X7.15Y-2.35
X7.15Y-2.45
X7.15Y-2.55
X7.15Y-2.65
X7.15Y-2.75
X7.15Y-2.85
X7.15Y-2.95
X7.15Y-3.05
X7.15Y-3.15
X7.15Y-3.25
X7.15Y-3.35
X7.1875Y-4.2625
X7.2Y-3.6
X7.2Y-3.9
X7.2083Y-4.6435
X7.2125Y-4.45
X7.4125Y-4.45
X7.4167Y-4.6315
X7.4375Y-4.2625
X7.5Y-4.778
X7.5Y-5.172
X7.5375Y-4.2375
X7.5625Y-4.375
X7.5625Y-4.625
X7.58Y-3.55
X7.58Y-3.75
X7.65Y-2.55
X7.7Y-4.65
X7.7Y-4.9
X7.7Y-4.9875
X7.7Y-5.2375
X7.7125Y-4.375
X7.75Y-2.25
X7.75Y-2.35
X7.75Y-2.45
X7.75Y-2.55
X7.75Y-2.65
X7.75Y-2.75
X7.75Y-2.85
X7.75Y-2.95
X7.75Y-3.05
X7.75Y-3.15
X7.75Y-3.25
X7.75Y-3.35
X7.775Y-5.175
T7
X7.175Y-4.025
X7.675Y-4.025
X7.725Y-3.85
X7.725Y-4.25
T8
X5.2Y-3.85
X5.2Y-4.15
X5.2Y-4.85
X5.2Y-5.15
X5.7Y-3.85
X5.7Y-4.15
X5.7Y-4.85
X5.7Y-5.15
T9
X5.275Y-5.5
X6.025Y-5.5
X6.775Y-5.5
X7.525Y-5.5
T10
X5.45Y-4.5
X5.65Y-5.625
X7.15Y-5.625
T11
X6.5Y-4.5
M30
