%TF.GenerationSoftware,KiCad,Pcbnew,8.0.1-rc1*%
%TF.CreationDate,2024-12-19T23:23:58-08:00*%
%TF.ProjectId,MMTR_AFE_00_04_TORELEASE,4d4d5452-5f41-4464-955f-30305f30345f,rev?*%
%TF.SameCoordinates,Original*%
%TF.FileFunction,Paste,Bot*%
%TF.FilePolarity,Positive*%
%FSLAX46Y46*%
G04 Gerber Fmt 4.6, Leading zero omitted, Abs format (unit mm)*
G04 Created by KiCad (PCBNEW 8.0.1-rc1) date 2024-12-19 23:23:58*
%MOMM*%
%LPD*%
G01*
G04 APERTURE LIST*
%ADD10R,0.762000X0.762000*%
%ADD11R,1.270000X1.270000*%
%ADD12R,0.400000X0.400000*%
%ADD13R,1.270000X0.431800*%
%ADD14R,1.000000X0.500000*%
%ADD15R,0.500000X1.000000*%
%ADD16R,0.310000X0.700000*%
%ADD17R,1.524000X1.524000*%
%ADD18R,1.200000X0.600000*%
%ADD19R,0.900000X0.310000*%
%ADD20R,0.400000X0.500000*%
G04 APERTURE END LIST*
D10*
%TO.C,C75*%
X160147000Y-60706000D03*
X160147000Y-62230000D03*
%TD*%
%TO.C,C5*%
X141605000Y-39243000D03*
X141605000Y-40767000D03*
%TD*%
%TO.C,J105*%
X179705000Y-98425000D03*
%TD*%
%TO.C,R79*%
X172243750Y-99726750D03*
X172243750Y-101250750D03*
%TD*%
%TO.C,RT5*%
X164592000Y-73787000D03*
X163068000Y-73787000D03*
%TD*%
D11*
%TO.C,D1*%
X189611000Y-87884000D03*
X193421000Y-87884000D03*
%TD*%
D10*
%TO.C,C70*%
X167132000Y-43815000D03*
X165608000Y-43815000D03*
%TD*%
%TO.C,C56*%
X159893000Y-38100000D03*
X161417000Y-38100000D03*
%TD*%
%TO.C,J47*%
X195738750Y-50355500D03*
D12*
X195738750Y-50917500D03*
X195738750Y-51317500D03*
D10*
X195738750Y-51879500D03*
%TD*%
D11*
%TO.C,D14*%
X148209000Y-35814000D03*
X152019000Y-35814000D03*
%TD*%
D13*
%TO.C,L1*%
X187787208Y-58274000D03*
X189887208Y-58274000D03*
X189887208Y-59074000D03*
X187787208Y-59074000D03*
%TD*%
D14*
%TO.C,U20*%
X132785000Y-45717500D03*
X132785000Y-43817500D03*
X135185000Y-44767500D03*
%TD*%
D10*
%TO.C,J16*%
X187198000Y-87884000D03*
%TD*%
%TO.C,C74*%
X161417000Y-60706000D03*
X161417000Y-62230000D03*
%TD*%
%TO.C,R86*%
X156845000Y-63373000D03*
X158369000Y-63373000D03*
%TD*%
D11*
%TO.C,RT7*%
X185483500Y-86677500D03*
X183451500Y-86677500D03*
%TD*%
D15*
%TO.C,U26*%
X177802500Y-99765000D03*
X179702500Y-99765000D03*
X178752500Y-102165000D03*
%TD*%
D10*
%TO.C,J42*%
X146843750Y-59213750D03*
%TD*%
D14*
%TO.C,Q18*%
X145027500Y-45087500D03*
X145027500Y-46987500D03*
X142627500Y-46037500D03*
%TD*%
D15*
%TO.C,Q6*%
X173987500Y-92005000D03*
X172087500Y-92005000D03*
X173037500Y-89605000D03*
%TD*%
D14*
%TO.C,U9*%
X143380000Y-41272500D03*
X143380000Y-40322500D03*
X143380000Y-39372500D03*
X146180000Y-39372500D03*
X146180000Y-41272500D03*
%TD*%
D11*
%TO.C,D9*%
X140318750Y-100171250D03*
X140318750Y-103981250D03*
%TD*%
D10*
%TO.C,R49*%
X152717500Y-42418000D03*
X152717500Y-43942000D03*
%TD*%
%TO.C,RT6*%
X164592000Y-75057000D03*
X163068000Y-75057000D03*
%TD*%
D11*
%TO.C,D12*%
X163353750Y-139541250D03*
X163353750Y-135731250D03*
%TD*%
D10*
%TO.C,J50*%
X185737500Y-41465500D03*
D12*
X185737500Y-42027500D03*
X185737500Y-42427500D03*
D10*
X185737500Y-42989500D03*
%TD*%
%TO.C,R60*%
X157480000Y-102743000D03*
X157480000Y-104267000D03*
%TD*%
D14*
%TO.C,Q20*%
X178187500Y-105725000D03*
X178187500Y-103825000D03*
X180587500Y-104775000D03*
%TD*%
D16*
%TO.C,U14*%
X174670000Y-66065000D03*
X174020000Y-66065000D03*
X173370000Y-66065000D03*
X172720000Y-66065000D03*
X172070000Y-66065000D03*
X171420000Y-66065000D03*
X170770000Y-66065000D03*
X170770000Y-59665000D03*
X171420000Y-59665000D03*
X172070000Y-59665000D03*
X172720000Y-59665000D03*
X173370000Y-59665000D03*
X174020000Y-59665000D03*
X174670000Y-59665000D03*
%TD*%
D10*
%TO.C,J14*%
X146367500Y-45910500D03*
X146367500Y-47434500D03*
%TD*%
%TO.C,R88*%
X164211000Y-60706000D03*
X162687000Y-60706000D03*
%TD*%
%TO.C,R45*%
X141160500Y-51752500D03*
X142684500Y-51752500D03*
%TD*%
D17*
%TO.C,R76*%
X179705000Y-91694000D03*
X179705000Y-88646000D03*
%TD*%
D15*
%TO.C,Q17*%
X157653808Y-110560000D03*
X159553808Y-110560000D03*
X158603808Y-112960000D03*
%TD*%
D10*
%TO.C,R81*%
X175895000Y-59182000D03*
X175895000Y-57658000D03*
%TD*%
D17*
%TO.C,C26*%
X165354000Y-97472500D03*
X162306000Y-97472500D03*
%TD*%
D11*
%TO.C,D11*%
X161607500Y-135731250D03*
X161607500Y-139541250D03*
%TD*%
D10*
%TO.C,C16*%
X186297208Y-57912000D03*
X186297208Y-59436000D03*
%TD*%
D17*
%TO.C,C57*%
X194564000Y-41605200D03*
X197612000Y-41605200D03*
%TD*%
D10*
%TO.C,J32*%
X142557500Y-59372500D03*
%TD*%
D18*
%TO.C,U24*%
X169415000Y-43495000D03*
X169415000Y-42545000D03*
X169415000Y-41595000D03*
X172215000Y-41595000D03*
X172215000Y-43495000D03*
%TD*%
D17*
%TO.C,C14*%
X194564000Y-47498000D03*
X197612000Y-47498000D03*
%TD*%
D10*
%TO.C,C30*%
X164274500Y-95885000D03*
X162750500Y-95885000D03*
%TD*%
%TO.C,R82*%
X170021250Y-56546750D03*
X170021250Y-58070750D03*
%TD*%
D17*
%TO.C,C31*%
X159956500Y-92075000D03*
X156908500Y-92075000D03*
%TD*%
D10*
%TO.C,R83*%
X171450000Y-68707000D03*
X171450000Y-67183000D03*
%TD*%
D14*
%TO.C,Q16*%
X158356308Y-108900000D03*
X158356308Y-107000000D03*
X160756308Y-107950000D03*
%TD*%
D10*
%TO.C,R84*%
X173355000Y-68707000D03*
X173355000Y-67183000D03*
%TD*%
%TO.C,R46*%
X175260000Y-89725500D03*
X175260000Y-91249500D03*
%TD*%
%TO.C,R78*%
X176530000Y-96710500D03*
X176530000Y-98234500D03*
%TD*%
%TO.C,C4*%
X144462500Y-48768000D03*
X144462500Y-50292000D03*
%TD*%
%TO.C,R61*%
X158750000Y-102743000D03*
X158750000Y-104267000D03*
%TD*%
%TO.C,C8*%
X146335750Y-43656250D03*
X144811750Y-43656250D03*
%TD*%
D14*
%TO.C,U29*%
X172215000Y-119065000D03*
X172215000Y-120015000D03*
X172215000Y-120965000D03*
X169415000Y-120965000D03*
X169415000Y-119065000D03*
%TD*%
D10*
%TO.C,R91*%
X164084000Y-65405000D03*
X162560000Y-65405000D03*
%TD*%
D19*
%TO.C,U28*%
X165710000Y-127052500D03*
X165710000Y-126402500D03*
X165710000Y-125752500D03*
X165710000Y-125102500D03*
X165710000Y-124452500D03*
X165710000Y-123802500D03*
X165710000Y-123152500D03*
X165710000Y-122502500D03*
X172110000Y-122502500D03*
X172110000Y-123152500D03*
X172110000Y-123802500D03*
X172110000Y-124452500D03*
X172110000Y-125102500D03*
X172110000Y-125752500D03*
X172110000Y-126402500D03*
X172110000Y-127052500D03*
%TD*%
D14*
%TO.C,Q11*%
X163265000Y-88262500D03*
X163265000Y-86362500D03*
X165665000Y-87312500D03*
%TD*%
D10*
%TO.C,C7*%
X143224250Y-42703750D03*
X144748250Y-42703750D03*
%TD*%
%TO.C,R87*%
X156845000Y-62230000D03*
X158369000Y-62230000D03*
%TD*%
%TO.C,J48*%
X191770000Y-41465500D03*
D12*
X191770000Y-42027500D03*
X191770000Y-42427500D03*
D10*
X191770000Y-42989500D03*
%TD*%
%TO.C,J80*%
X173482000Y-107950000D03*
D12*
X172920000Y-107950000D03*
X172520000Y-107950000D03*
D10*
X171958000Y-107950000D03*
%TD*%
%TO.C,R58*%
X146685000Y-56388000D03*
X146685000Y-57912000D03*
%TD*%
%TO.C,R85*%
X156845000Y-64516000D03*
X158369000Y-64516000D03*
%TD*%
%TO.C,J9*%
X175260000Y-93789500D03*
D12*
X175260000Y-93227500D03*
X175260000Y-92827500D03*
D10*
X175260000Y-92265500D03*
%TD*%
D14*
%TO.C,Q10*%
X163265000Y-92072500D03*
X163265000Y-90172500D03*
X165665000Y-91122500D03*
%TD*%
D10*
%TO.C,C1*%
X176530000Y-91249500D03*
X176530000Y-89725500D03*
%TD*%
D17*
%TO.C,C27*%
X165354000Y-99695000D03*
X162306000Y-99695000D03*
%TD*%
D11*
%TO.C,D10*%
X138271250Y-103981250D03*
X138271250Y-100171250D03*
%TD*%
D20*
%TO.C,D3*%
X154622500Y-38755000D03*
X154622500Y-41255000D03*
%TD*%
D10*
%TO.C,R7*%
X178308000Y-118745000D03*
X178308000Y-117221000D03*
%TD*%
D11*
%TO.C,D8*%
X136048750Y-102552500D03*
X132238750Y-102552500D03*
%TD*%
D10*
%TO.C,R31*%
X173037500Y-88074500D03*
X173037500Y-86550500D03*
%TD*%
%TO.C,C38*%
X175768000Y-46634400D03*
X177292000Y-46634400D03*
%TD*%
D14*
%TO.C,Q15*%
X173920000Y-55565000D03*
X173920000Y-57465000D03*
X171520000Y-56515000D03*
%TD*%
D10*
%TO.C,R89*%
X164211000Y-62230000D03*
X162687000Y-62230000D03*
%TD*%
%TO.C,J36*%
X139065000Y-49847500D03*
%TD*%
D14*
%TO.C,U4*%
X174755000Y-95570000D03*
X174755000Y-96520000D03*
X174755000Y-97470000D03*
X171955000Y-97470000D03*
X171955000Y-95570000D03*
%TD*%
D17*
%TO.C,C11*%
X194564000Y-43535600D03*
X197612000Y-43535600D03*
%TD*%
D14*
%TO.C,Q19*%
X140722500Y-49527500D03*
X140722500Y-47627500D03*
X143122500Y-48577500D03*
%TD*%
D10*
%TO.C,J49*%
X162560000Y-107505500D03*
D12*
X162560000Y-108067500D03*
X162560000Y-108467500D03*
D10*
X162560000Y-109029500D03*
%TD*%
D14*
%TO.C,Q13*%
X161855000Y-39690000D03*
X161855000Y-41590000D03*
X159455000Y-40640000D03*
%TD*%
D10*
%TO.C,R64*%
X145224500Y-59213750D03*
X143700500Y-59213750D03*
%TD*%
D17*
%TO.C,C9*%
X128397000Y-96012000D03*
X128397000Y-99060000D03*
%TD*%
D10*
%TO.C,J81*%
X173482000Y-110490000D03*
D12*
X172920000Y-110490000D03*
X172520000Y-110490000D03*
D10*
X171958000Y-110490000D03*
%TD*%
%TO.C,C15*%
X185027208Y-57912000D03*
X185027208Y-59436000D03*
%TD*%
D14*
%TO.C,U25*%
X164335000Y-42225000D03*
X164335000Y-41275000D03*
X164335000Y-40325000D03*
X167135000Y-40325000D03*
X167135000Y-42225000D03*
%TD*%
D10*
%TO.C,C2*%
X145542000Y-37782500D03*
X144018000Y-37782500D03*
%TD*%
%TO.C,R90*%
X164084000Y-63500000D03*
X162560000Y-63500000D03*
%TD*%
%TO.C,R6*%
X177038000Y-118745000D03*
X177038000Y-117221000D03*
%TD*%
%TO.C,J17*%
X189484000Y-89408000D03*
%TD*%
%TO.C,C69*%
X169418000Y-45085000D03*
X170942000Y-45085000D03*
%TD*%
D20*
%TO.C,D4*%
X152400000Y-38755000D03*
X152400000Y-41255000D03*
%TD*%
D10*
%TO.C,J22*%
X170180000Y-97790000D03*
%TD*%
%TO.C,C21*%
X179546250Y-57181750D03*
X179546250Y-58705750D03*
%TD*%
%TO.C,R59*%
X175133000Y-55562500D03*
X176657000Y-55562500D03*
%TD*%
D11*
%TO.C,D2*%
X167957500Y-91757500D03*
X167957500Y-87947500D03*
%TD*%
%TO.C,D6*%
X181610000Y-88582500D03*
X185420000Y-88582500D03*
%TD*%
D10*
%TO.C,C35*%
X165608000Y-38100000D03*
X167132000Y-38100000D03*
%TD*%
%TO.C,R65*%
X145232250Y-56388000D03*
X145232250Y-57912000D03*
%TD*%
%TO.C,R55*%
X146526250Y-53467000D03*
X146526250Y-51943000D03*
%TD*%
%TO.C,J51*%
X187960000Y-41465500D03*
D12*
X187960000Y-42027500D03*
X187960000Y-42427500D03*
D10*
X187960000Y-42989500D03*
%TD*%
D11*
%TO.C,D13*%
X155448000Y-42545000D03*
X155448000Y-46355000D03*
%TD*%
D10*
%TO.C,R10*%
X156845000Y-65659000D03*
X158369000Y-65659000D03*
%TD*%
D17*
%TO.C,R77*%
X179705000Y-96774000D03*
X179705000Y-93726000D03*
%TD*%
D10*
%TO.C,RT4*%
X164592000Y-76327000D03*
X163068000Y-76327000D03*
%TD*%
D11*
%TO.C,D7*%
X132238750Y-100678750D03*
X136048750Y-100678750D03*
%TD*%
D10*
%TO.C,R30*%
X170497500Y-90360500D03*
X170497500Y-91884500D03*
%TD*%
D17*
%TO.C,C36*%
X194564000Y-45516800D03*
X197612000Y-45516800D03*
%TD*%
M02*
